# xmcd CD database file
#
# Track frame offsets:
#	150
#	21954
#	36551
#	57072
#	73379
#	90387
#	107579
#	123749
#	143167
#	154384
#	170712
#	189013
#	203660
#	222379
#	241648
#	271577
#	289016
#
# Disc length: 4453 seconds
#
# Revision: 7
# Processed by: cddbd v1.5.2PL0 Copyright (c) Steve Scherf et al.
# Submitted via: CDex 1.50
#
DISCID=f6116311
DTITLE=Various Artist - Newage Best Vol.1
DYEAR=2009
DGENRE=New Age
TTITLE0=YIRUMA - Destiny Of Love
TTITLE1=Yuhki Kuramoto - Lake Louise I
TTITLE2=Isao Sasaki - 99 Miles From You
TTITLE3=YIRUMA - Falling...
TTITLE4=Yuhki Kuramoto - Lovingly
TTITLE5=YIRUMA - Chaconne
TTITLE6=Steve Barakatt - Angel Over Me
TTITLE7=YIRUMA - Kiss The Rain
TTITLE8=Jim Brickman - Angel Eyes
TTITLE9=YIRUMA - 27.May
TTITLE10=YIRUMA - Letter
TTITLE11=Ryuichi Sakamoto - Say You Love Me
TTITLE12=Isao Sasaki - Tear Drop
TTITLE13=Kevin Kern - A Simple Life
TTITLE14=Shardad Rohani - Golden Dream
TTITLE15=Steve Barakatt - Flying
TTITLE16=Isao Sasaki - Sky Walker
EXTD=YEAR: 2009
EXTT0=
EXTT1=
EXTT2=
EXTT3=
EXTT4=
EXTT5=
EXTT6=
EXTT7=
EXTT8=
EXTT9=
EXTT10=
EXTT11=
EXTT12=
EXTT13=
EXTT14=
EXTT15=
EXTT16=
PLAYORDER=
